<?xml version="1.0" encoding="iso-8859-1"?>
<!-- Generator: Adobe Illustrator 22.1.0, SVG Export Plug-In . SVG Version: 6.00 Build 0)  -->
<svg xmlns="http://www.w3.org/2000/svg" xmlns:xlink="http://www.w3.org/1999/xlink" version="1.1" id="Layer_1_1_" x="0px" y="0px" viewBox="0 0 64 64" style="enable-background:new 0 0 64 64;" xml:space="preserve" width="512" height="512">
<g>
	<path style="fill:#F0BC5E;" d="M27,51H7c-1.105,0-2-0.895-2-2V23c0-1.105,0.895-2,2-2h20c1.105,0,2,0.895,2,2v26   C29,50.105,28.105,51,27,51z"/>
	<path style="fill:#F0BC5E;" d="M43,20v2c0,1.654,1.346,3,3,3s3-1.346,3-3v-2H43z"/>
	<g>
		<rect x="13" y="13" width="8" height="2"/>
		<rect x="23" y="13" width="2" height="2"/>
		<rect x="9" y="13" width="2" height="2"/>
		<rect x="14" y="57" width="6" height="2"/>
		<path d="M23.82,25H10.18l-1.122,5.608C9.02,30.803,9,31,9,31.198V32c0,0.883,0.391,1.67,1,2.22V43h14v-8.78    c0.609-0.549,1-1.337,1-2.22v-0.802c0-0.198-0.02-0.396-0.059-0.589L23.82,25z M22.98,31.003c0.013,0.063,0.02,0.13,0.02,0.195V32    c0,0.552-0.449,1-1,1s-1-0.448-1-1v-1h-0.02c-0.009-0.131-0.013-0.262-0.039-0.391L20.22,27h1.961L22.98,31.003z M15.02,31.002    L15.82,27h2.36l0.8,4.003c0.013,0.063,0.02,0.13,0.02,0.195C19,32.191,18.192,33,17.198,33h-0.396C15.808,33,15,32.191,15,31.198    C15,31.133,15.007,31.066,15.02,31.002z M11,31.198c0-0.065,0.007-0.132,0.02-0.196L11.82,27h1.96l-0.722,3.608    c-0.026,0.129-0.03,0.261-0.039,0.392H13v1c0,0.552-0.449,1-1,1s-1-0.448-1-1V31.198z M22,41H12v-6    c0.891,0,1.684-0.398,2.233-1.017C14.911,34.609,15.809,35,16.802,35h0.396c0.993,0,1.89-0.391,2.568-1.017    C20.316,34.602,21.109,35,22,35V41z"/>
		<rect x="9" y="45" width="16" height="2"/>
		<path d="M58,37c-0.395,0-0.77,0.081-1.116,0.22c-0.035-0.129-0.067-0.26-0.119-0.381C60.32,36.106,63,32.952,63,29.185    c0-1.639-0.503-3.209-1.456-4.543l-1.405-1.968C58.739,20.715,58,18.406,58,16v-1h-2v-4c0-5.514-4.486-10-10-10S36,5.486,36,11v4    h-2v1c0,1.629-0.347,3.211-1,4.672V14c0-2.757-2.243-5-5-5H6c-2.757,0-5,2.243-5,5v44c0,2.757,2.243,5,5,5h22c2.757,0,5-2.243,5-5    V35.998C34.13,36.634,35.43,37,36.816,37H43v12.578c-0.189-0.193-0.323-0.442-0.374-0.725L40.834,39H38.18    C36.427,39,35,40.427,35,42.181v0.639c0,0.176,0.015,0.353,0.043,0.522l1.799,10.795c0.14,0.841,0.496,1.637,1.028,2.302    l2.473,3.091C40.767,60.059,41,60.725,41,61.403V63h16v-1.597c0-0.679,0.233-1.345,0.657-1.874l2.247-2.809    C60.611,55.838,61,54.729,61,53.597V40C61,38.346,59.654,37,58,37z M38,11c0-4.411,3.589-8,8-8s8,3.589,8,8v4H38V11z M56.037,17    c0.05,0.677,0.154,1.345,0.303,2H35.66c0.149-0.655,0.254-1.323,0.303-2H56.037z M31,34.387V53H3V19h28v4.88l-0.544,0.762    C29.503,25.976,29,27.546,29,29.185C29,31.184,29.761,33.004,31,34.387z M6,11h22c1.654,0,3,1.346,3,3v3H3v-3    C3,12.346,4.346,11,6,11z M28,61H6c-1.654,0-3-1.346-3-3v-3h28v3C31,59.654,29.654,61,28,61z M36.816,35    C33.609,35,31,32.392,31,29.185c0-1.22,0.375-2.389,1.083-3.381l1.406-1.968c0.635-0.889,1.146-1.842,1.544-2.836h21.933    c0.398,0.994,0.91,1.947,1.545,2.836l1.405,1.968C60.625,26.796,61,27.965,61,29.185C61,32.392,58.391,35,55.184,35H54    c-0.395,0-0.77,0.081-1.116,0.22C52.539,33.945,51.383,33,50,33c-0.352,0-0.686,0.072-1,0.184V30c0-1.654-1.346-3-3-3    s-3,1.346-3,3v5H36.816z M59,53.597c0,0.679-0.233,1.345-0.657,1.874l-2.247,2.809c-0.623,0.778-0.999,1.731-1.079,2.721H42.983    c-0.081-0.989-0.457-1.942-1.079-2.721l-2.473-3.091c-0.319-0.398-0.533-0.876-0.617-1.38l-1.799-10.798    C37.005,42.947,37,42.884,37,42.819v-0.639C37,41.529,37.529,41,38.18,41h0.985l1.493,8.211C40.953,50.827,42.358,52,44,52h1V30    c0-0.552,0.449-1,1-1s1,0.448,1,1v6v10v4h2v-4V36c0-0.552,0.449-1,1-1s1,0.448,1,1v2v12h2V38c0-0.552,0.449-1,1-1s1,0.448,1,1v2    v10h2V40c0-0.552,0.449-1,1-1s1,0.448,1,1V53.597z"/>
	</g>
</g>
</svg>
