<?xml version="1.0" encoding="iso-8859-1"?>
<!-- Generator: Adobe Illustrator 22.1.0, SVG Export Plug-In . SVG Version: 6.00 Build 0)  -->
<svg xmlns="http://www.w3.org/2000/svg" xmlns:xlink="http://www.w3.org/1999/xlink" version="1.1" id="Layer_1_1_" x="0px" y="0px" viewBox="0 0 64 64" style="enable-background:new 0 0 64 64;" xml:space="preserve" width="512" height="512">
<g>
	<rect x="29" y="30" style="fill:#F0BC5E;" width="14" height="12"/>
	<rect x="9" y="30" style="fill:#F0BC5E;" width="14" height="16"/>
	<g>
		<path style="fill:#F0BC5E;" d="M23,27H9V17h14V27z"/>
	</g>
	<g>
		<rect x="15" y="5" width="8" height="2"/>
		<rect x="25" y="5" width="2" height="2"/>
		<rect x="11" y="5" width="2" height="2"/>
		<rect x="16" y="57" width="6" height="2"/>
		<rect x="29" y="21" width="2" height="2"/>
		<rect x="33" y="21" width="2" height="2"/>
		<rect x="37" y="21" width="2" height="2"/>
		<rect x="9" y="29" width="14" height="2"/>
		<rect x="9" y="33" width="14" height="2"/>
		<rect x="9" y="37" width="14" height="2"/>
		<rect x="9" y="41" width="14" height="2"/>
		<rect x="9" y="45" width="14" height="2"/>
		<path d="M52,43c3.859,0,7-3.141,7-7s-3.141-7-7-7s-7,3.141-7,7v1h6v6H52z M47.101,35c0.465-2.279,2.484-4,4.899-4    c2.757,0,5,2.243,5,5c0,2.415-1.721,4.435-4,4.899V35H47.101z"/>
		<path d="M37,17V6c0-2.757-2.243-5-5-5H6C3.243,1,1,3.243,1,6v52c0,2.757,2.243,5,5,5h26c2.757,0,5-2.243,5-5V45H27V27h34v18H39v2    h24V17H37z M6,3h26c1.654,0,3,1.346,3,3v3H3V6C3,4.346,4.346,3,6,3z M32,61H6c-1.654,0-3-1.346-3-3v-3h32v3    C35,59.654,33.654,61,32,61z M35,53H3V11h32v6h-2v-4H5v38h28v-4h2V53z M31,47v2H7V15h24v2h-6v30H31z M27,25v-6h34v6H27z"/>
		<rect x="29" y="29" width="14" height="2"/>
		<rect x="29" y="33" width="14" height="2"/>
		<rect x="29" y="37" width="14" height="2"/>
		<rect x="47" y="41" width="2" height="2"/>
		<rect x="29" y="41" width="16" height="2"/>
	</g>
</g>
</svg>
