<?xml version="1.0" encoding="iso-8859-1"?>
<!-- Generator: Adobe Illustrator 22.1.0, SVG Export Plug-In . SVG Version: 6.00 Build 0)  -->
<svg xmlns="http://www.w3.org/2000/svg" xmlns:xlink="http://www.w3.org/1999/xlink" version="1.1" id="Layer_1_1_" x="0px" y="0px" viewBox="0 0 64 64" style="enable-background:new 0 0 64 64;" xml:space="preserve" width="512" height="512">
<g>
	<path style="fill:#F0BC5E;" d="M1,1v28h17v-5h-5c-1.105,0-2-0.895-2-2v-6c0-1.105,0.895-2,2-2h6c1.105,0,2,0.895,2,2v4h10V1H1z"/>
	<path style="fill:#F0BC5E;" d="M33,1v19h7.518C39.56,18.57,39,16.851,39,15c0-4.971,4.029-9,9-9s9,4.029,9,9c0,4.971-4.029,9-9,9   c-0.688,0-1.356-0.084-2-0.231V29h17V1H33z"/>
	<path style="fill:#F0BC5E;" d="M32,43c-5.514,0-10-4.486-10-10s4.486-10,10-10s10,4.486,10,10S37.514,43,32,43z"/>
	<g>
		<rect x="57" y="43" width="2" height="8"/>
		<rect x="57" y="53" width="2" height="2"/>
		<rect x="57" y="39" width="2" height="2"/>
		<rect x="5" y="44" width="2" height="6"/>
		<path d="M58,31H45v14H19v-6h-2v8h30V37h2v20H15V37h4V21h26v8h2v-4.055C47.331,24.978,47.664,25,47.999,25    c0.538,0,1.08-0.043,1.622-0.128c4.169-0.657,7.558-4.023,8.241-8.186c0.511-3.118-0.415-6.215-2.541-8.499    c-2.125-2.283-5.129-3.427-8.257-3.145c-4.682,0.428-8.465,4.124-8.997,8.789c-0.202,1.777,0.069,3.561,0.769,5.168H22v-3    c0-1.302-0.839-2.402-2-2.816V9c0-2.206-1.794-4-4-4s-4,1.794-4,4v4.184c-1.161,0.414-2,1.514-2,2.816v6c0,1.654,1.346,3,3,3h4v6    H6c-2.757,0-5,2.243-5,5v22c0,2.757,2.243,5,5,5h52c2.757,0,5-2.243,5-5V36C63,33.243,60.757,31,58,31z M42.414,19l1.233-1.233    C44.52,16.895,45,15.735,45,14.501v-0.266c0-0.445,0.125-0.862,0.326-1.236h0.871c0.981,0,1.931,0.288,2.748,0.832    C50.092,14.596,51.426,15,52.803,15c1.097,0,2.171-0.275,3.15-0.753c0.065,0.695,0.052,1.404-0.065,2.116    c-0.063,0.383-0.161,0.756-0.279,1.12C54.909,17.175,54.164,17,53.395,17c-0.714,0-1.406-0.209-2-0.605l-1.26-0.84    C49.59,15.192,48.956,15,48.303,15C46.481,15,45,16.481,45,18.303V19H42.414z M49.309,22.896c-0.777,0.123-1.55,0.136-2.309,0.041    V20v-1v-0.697C47,17.584,47.584,17,48.303,17c0.258,0,0.508,0.076,0.723,0.219l1.26,0.84C51.208,18.674,52.284,19,53.395,19    c0.465,0,0.918,0.103,1.346,0.281C53.538,21.164,51.578,22.539,49.309,22.896z M55.494,12.233    c-1.656,0.997-3.817,1.017-5.439-0.065c-0.77-0.513-1.629-0.849-2.525-1.024C48.456,10.286,49,9.075,49,7.764    c0-0.236-0.025-0.47-0.061-0.703c1.872,0.218,3.606,1.081,4.918,2.49C54.59,10.338,55.133,11.252,55.494,12.233z M40.054,14.058    c0.404-3.552,3.319-6.489,6.848-6.976C46.964,7.308,47,7.536,47,7.764c0,0.998-0.555,1.896-1.447,2.342    C43.978,10.893,43,12.476,43,14.236v0.266c0,0.689-0.279,1.364-0.767,1.851L40.586,18C40.085,16.769,39.898,15.432,40.054,14.058z     M16,7c1.103,0,2,0.897,2,2v4h-4V9C14,7.897,14.897,7,16,7z M13,23c-0.551,0-1-0.449-1-1v-6c0-0.551,0.449-1,1-1h6    c0.551,0,1,0.449,1,1v3h-3v4H13z M17,35h-4v24h38V35h-4v-2h6v28H11V33h6V35z M3,58V36c0-1.654,1.346-3,3-3h3v28H6    C4.346,61,3,59.654,3,58z M61,58c0,1.654-1.346,3-3,3h-3V33h3c1.654,0,3,1.346,3,3V58z"/>
		<path d="M38.236,33L27,27.382v11.236L38.236,33z M29,30.618L33.764,33L29,35.382V30.618z"/>
		<path d="M23,49h-6v6h6V49z M21,53h-2v-2h2V53z"/>
		<path d="M25,49v6h6v-6H25z M29,53h-2v-2h2V53z"/>
		<path d="M33,49v6h6v-6H33z M37,53h-2v-2h2V53z"/>
		<path d="M41,49v6h6v-6H41z M45,53h-2v-2h2V53z"/>
	</g>
</g>
</svg>
