<?xml version="1.0" encoding="iso-8859-1"?>
<!-- Generator: Adobe Illustrator 22.1.0, SVG Export Plug-In . SVG Version: 6.00 Build 0)  -->
<svg xmlns="http://www.w3.org/2000/svg" xmlns:xlink="http://www.w3.org/1999/xlink" version="1.1" id="Layer_1_1_" x="0px" y="0px" viewBox="0 0 64 64" style="enable-background:new 0 0 64 64;" xml:space="preserve" width="512" height="512">
<g>
	<path style="fill:#F0BC5E;" d="M39,31h4v0c0,3.314-2.686,6-6,6h-4v0C33,33.686,35.686,31,39,31z"/>
	<path style="fill:#F0BC5E;" d="M25,33h-4v0c0,3.314,2.686,6,6,6h4v0C31,35.686,28.314,33,25,33z"/>
	<path style="fill:#F0BC5E;" d="M39,40h4v0c0,3.314-2.686,6-6,6h-4v0C33,42.686,35.686,40,39,40z"/>
	<path style="fill:#F0BC5E;" d="M25,43h-4v0c0,3.314,2.686,6,6,6h4v0C31,45.686,28.314,43,25,43z"/>
	<g>
		<path d="M47,1H17c-2.757,0-5,2.243-5,5v52c0,2.757,2.243,5,5,5h30c2.757,0,5-2.243,5-5V6C52,3.243,49.757,1,47,1z M17,3h30    c1.654,0,3,1.346,3,3v3H14V6C14,4.346,15.346,3,17,3z M50,11v42H14V11H50z M47,61H17c-1.654,0-3-1.346-3-3v-3h36v3    C50,59.654,48.654,61,47,61z"/>
		<rect x="28" y="5" width="8" height="2"/>
		<rect x="38" y="5" width="2" height="2"/>
		<rect x="24" y="5" width="2" height="2"/>
		<rect x="29" y="57" width="6" height="2"/>
		<path d="M48,51V13H16v38H48z M32,29c-1.41,0-4-1.519-4-4c0-1.628,2.245-4.147,4-5.693c1.755,1.545,4,4.064,4,5.693    C36,27.481,33.41,29,32,29z M18,15h28v34H33V30.882c2.31-0.514,5-2.695,5-5.882c0-3.383-4.825-7.341-5.375-7.781L32,16.719    l-0.625,0.5C30.825,17.659,26,21.617,26,25c0,3.187,2.69,5.368,5,5.882V49H18V15z"/>
	</g>
</g>
</svg>
