<?xml version="1.0" encoding="iso-8859-1"?>
<!-- Generator: Adobe Illustrator 22.1.0, SVG Export Plug-In . SVG Version: 6.00 Build 0)  -->
<svg xmlns="http://www.w3.org/2000/svg" xmlns:xlink="http://www.w3.org/1999/xlink" version="1.1" id="Layer_1_1_" x="0px" y="0px" viewBox="0 0 64 64" style="enable-background:new 0 0 64 64;" xml:space="preserve" width="512" height="512">
<g>
	<g>
		<path style="fill:#F0BC5E;" d="M45,33H19c-1.105,0-2-0.895-2-2V7c0-1.105,0.895-2,2-2h26c1.105,0,2,0.895,2,2v24    C47,32.105,46.105,33,45,33z"/>
	</g>
	<g>
		<path style="fill:#F0BC5E;" d="M32,55c-5.514,0-10-4.486-10-10s4.486-10,10-10s10,4.486,10,10S37.514,55,32,55z"/>
	</g>
	<g>
		<rect x="5" y="37" width="2" height="8"/>
		<rect x="5" y="33" width="2" height="2"/>
		<rect x="5" y="47" width="2" height="2"/>
		<rect x="57" y="38" width="2" height="6"/>
		<rect x="33" y="41" width="2" height="8"/>
		<rect x="29" y="41" width="2" height="8"/>
		<path d="M25,29c2.206,0,4-1.794,4-4v-9.847l12,1.714v4.689C40.409,21.212,39.732,21,39,21c-2.206,0-4,1.794-4,4s1.794,4,4,4    s4-1.794,4-4V11.133L27,8.847v12.71C26.409,21.212,25.732,21,25,21c-2.206,0-4,1.794-4,4S22.794,29,25,29z M39,27    c-1.103,0-2-0.897-2-2s0.897-2,2-2s2,0.897,2,2S40.103,27,39,27z M41,12.867v1.979l-12-1.714v-1.979L41,12.867z M25,23    c1.103,0,2,0.897,2,2s-0.897,2-2,2s-2-0.897-2-2S23.897,23,25,23z"/>
		<polygon points="49,53 15,53 15,29 17,29 17,27 13,27 13,55 51,55 51,27 47,27 47,29 49,29   "/>
		<path d="M58,23H47v2h6v32H11V25h6v-2H6c-2.757,0-5,2.243-5,5v26c0,2.757,2.243,5,5,5h52c2.757,0,5-2.243,5-5V28    C63,25.243,60.757,23,58,23z M3,54V28c0-1.654,1.346-3,3-3h3v32H6C4.346,57,3,55.654,3,54z M61,54c0,1.654-1.346,3-3,3h-3V25h3    c1.654,0,3,1.346,3,3V54z"/>
	</g>
</g>
</svg>
